<svg xmlns="http://www.w3.org/2000/svg" width="104" height="44" viewBox="0 0 104 44" fill="none"><path d="M12.4594 10.8539C5.30948 10.1473 -0.651595 16.106 0.057368 23.2583C0.58065 28.549 4.86095 32.8293 10.1516 33.3526C17.3016 34.0616 23.2626 28.1005 22.5537 20.9506C22.0304 15.6599 17.7501 11.3796 12.4594 10.8563V10.8539ZM12.0904 28.0836C8.15015 28.5852 4.82237 25.2574 5.32395 21.3171C5.66637 18.6308 7.83425 16.4629 10.5182 16.1229C14.4561 15.6213 17.7863 18.9491 17.2847 22.8894C16.9447 25.5733 14.7744 27.7436 12.0904 28.0836Z" fill="#005bff"/><path d="M28.6208 11.3027C26.9859 11.3027 25.6981 12.7906 26.0382 14.4858C26.2865 15.7301 27.4537 16.579 28.7197 16.579H36.0818L24.6226 31.6963C24.2465 32.193 24.6009 32.9044 25.2231 32.9044H43.1979C44.4664 32.9044 45.6311 32.0556 45.8795 30.8113C46.2195 29.116 44.9318 27.6282 43.2968 27.6282H34.3263L45.7758 12.5229C46.1544 12.0213 45.7975 11.3027 45.1705 11.3027H28.6208Z" fill="#005bff"/><path d="M100.446 11.3622C99.2205 11.6202 98.3813 12.7584 98.3813 14.0099V22.7948L84.1032 11.4683C83.6065 11.0728 82.8734 11.4273 82.8734 12.0639V30.2027C82.8734 31.4543 83.7126 32.5925 84.9376 32.8505C86.6449 33.2098 88.1496 31.9173 88.1496 30.2727V21.413L102.428 32.7396C102.924 33.135 103.66 32.7806 103.66 32.1439V13.94C103.66 12.2954 102.155 11.0029 100.448 11.3622H100.446Z" fill="#005bff"/><path d="M63.2708 16.0751C69.3091 16.0751 73.8209 19.2582 73.8209 22.1036C73.8209 24.9491 69.3091 28.1322 63.2708 28.1322C57.2326 28.1322 52.7208 24.9491 52.7208 22.1036C52.7208 19.2582 57.2326 16.0751 63.2708 16.0751ZM63.2708 10.7988C54.5294 10.7988 47.4446 15.8604 47.4446 22.1012C47.4446 28.3444 54.5294 33.4036 63.2708 33.4036C72.0123 33.4036 79.0971 28.342 79.0971 22.1012C79.0971 15.858 72.0099 10.7988 63.2708 10.7988Z" fill="#005bff"/></svg>